<?xml version="1.0" encoding="UTF-8" standalone="no"?>
<svg width="93px" height="32px" viewBox="0 0 93 32" version="1.1" xmlns="http://www.w3.org/2000/svg" xmlns:xlink="http://www.w3.org/1999/xlink" xmlns:sketch="http://www.bohemiancoding.com/sketch/ns">
    <!-- Generator: Sketch 3.1.1 (8761) - http://www.bohemiancoding.com/sketch -->
    <title>logo</title>
    <desc>Created with Sketch.</desc>
    <defs></defs>
    <g id="报表系统" stroke="none" stroke-width="1" fill="none" fill-rule="evenodd" sketch:type="MSPage">
        <g id="列表页效果图" sketch:type="MSArtboardGroup" transform="translate(-230.000000, -10.000000)">
            <g id="logo+menu+user" sketch:type="MSLayerGroup">
                <g id="logo" transform="translate(230.000000, 10.000000)" sketch:type="MSShapeGroup">
                    <rect id="Rectangle-path" fill="#E60012" x="42.1062992" y="22.5454545" width="50.8937008" height="0.618181818"></rect>
                    <g id="Group" fill="#E60012">
                        <path d="M37.0169291,8 L37.0169291,12.0727273 C36.9437008,9.78181818 34.7834646,5.56363636 30.5362205,4.61818182 C19.8082677,2.29090909 19.1125984,12.1818182 7.76220472,11.4181818 C5.01614173,11.2363636 2.41653543,9.30909091 1.02519685,7.2 C0.512598425,6.36363636 0.146456693,5.52727273 0.0732283465,4.69090909 L0.0732283465,4.98181818 L0.0732283465,1.52727273 L0.0732283465,0.509090909 C0.366141732,3.38181818 3.99094488,6.98181818 7.76220472,7.23636364 C19.1125984,8 19.8082677,-1.89090909 30.5362205,0.436363636 C34.8566929,1.38181818 37.0169291,5.74545455 37.0169291,8 L37.0169291,8 Z" id="Shape"></path>
                        <path d="M36.980315,31.7818182 C36.8338583,28.3636364 32.8429134,25.1272727 27.5704724,25.1272727 C27.0944882,25.1272727 26.6185039,25.1636364 26.1425197,25.2 C23.1401575,25.5272727 20.9799213,26.9454545 18.819685,28.3636364 C16.6594488,29.7818182 14.4625984,31.2 11.3870079,31.5272727 C5.23582677,32.2181818 0.146456693,26.4727273 0.10984252,23.4909091 L0.0732283465,8.65454545 L0.0732283465,8.61818182 L0.0732283465,7.63636364 C0.219685039,9.05454545 1.17165354,10.6545455 2.56299213,11.9636364 C3.99094488,13.2727273 5.82165354,14.2181818 7.72559055,14.3636364 C8.12834646,14.4 8.56771654,14.4 8.93385827,14.4 C13.4740157,14.4 16.1834646,12.6181818 18.7464567,10.8 C20.0279528,9.89090909 21.2362205,9.01818182 22.5909449,8.32727273 C23.9822835,7.63636364 25.4834646,7.2 27.3874016,7.2 C28.3393701,7.2 29.3279528,7.30909091 30.4629921,7.56363636 C33.2822835,8.18181818 35.1862205,10.2545455 36.1748031,12.2545455 C36.6874016,13.3090909 36.9437008,14.3272727 36.9437008,15.1272727 L36.980315,31.9272727 L36.980315,31.7818182 L36.980315,31.7818182 Z" id="Shape"></path>
                    </g>
                    <path d="M87.5811024,15.8545455 L87.5811024,13.6 L88.4964567,13.6 L88.4964567,10.3636364 L87.5811024,10.3636364 L87.5811024,8.10909091 L88.4964567,8.10909091 L88.4964567,5.74545455 L87.5811024,5.74545455 L87.5811024,3.41818182 L91.8283465,3.41818182 L91.8283465,16.1818182 L88.5330709,16.1818182 L88.5330709,15.8909091 L87.5811024,15.8909091 L87.5811024,15.8545455 Z M87.5811024,3.41818182 L87.5811024,5.74545455 L86.665748,5.74545455 L86.665748,8.10909091 L87.5811024,8.10909091 L87.5811024,10.3636364 L86.665748,10.3636364 L86.665748,13.6 L87.5811024,13.6 L87.5811024,15.8545455 L86.665748,15.8545455 L86.665748,20.3636364 L83.3704724,20.3636364 L83.3704724,15.8545455 L82.4551181,15.8545455 L82.4551181,13.6 L83.3704724,13.6 L83.3704724,10.3636364 L82.4551181,10.3636364 L82.4551181,8.10909091 L83.3704724,8.10909091 L83.3704724,5.74545455 L82.4551181,5.74545455 L82.4551181,3.41818182 L83.3704724,3.41818182 L83.3704724,0.254545455 L86.665748,0.254545455 L86.665748,3.41818182 L87.5811024,3.41818182 L87.5811024,3.41818182 Z M74.3267717,2.94545455 L76.7433071,2.90909091 L75.3885827,0 L74.3267717,0 L74.3267717,2.94545455 L74.3267717,2.94545455 Z M82.4185039,3.41818182 L82.4185039,5.74545455 L81.5031496,5.74545455 L81.5031496,8.10909091 L82.4185039,8.10909091 L82.4185039,10.3636364 L81.5031496,10.3636364 L81.5031496,13.6 L82.4185039,13.6 L82.4185039,15.8545455 L81.5031496,15.8545455 L81.5031496,16.4 L78.3909449,16.4 L78.3909449,13.9636364 L76.7433071,13.9636364 L75.3885827,10.9090909 L75.3885827,20.1454545 L74.3267717,20.1454545 L74.3267717,3.92727273 L77.4389764,3.92727273 L75.461811,8.90909091 L77.2559055,8.90909091 L78.3909449,11.4181818 L78.3909449,3.41818182 L82.4185039,3.41818182 L82.4185039,3.41818182 Z M71.9468504,0 L73.338189,2.94545455 L74.3633858,2.90909091 L74.3633858,0 L71.9468504,0 L71.9468504,0 Z M74.3267717,3.92727273 L74.3267717,20.1090909 L72.2031496,20.1090909 L72.2031496,12.4363636 L70.7751969,13.6363636 L68.1755906,15.3454545 L68.1755906,12.1454545 C70.3358268,10.5090909 72.1665354,9.2 73.2283465,6.32727273 L68.4685039,6.32727273 L68.4685039,3.89090909 L74.3267717,3.89090909 L74.3267717,3.92727273 Z" id="Shape" fill="#FFFFFF"></path>
                    <path d="M53.676378,7.49090909 L55.1409449,10.6909091 L53.9326772,13.0545455 L53.5665354,12.4727273 L53.5665354,17.4545455 L54.1889764,17.4545455 C54.1889764,17.4545455 55.6901575,15.3454545 56.6787402,13.6363636 L57.1913386,14.8727273 L57.6307087,16.1818182 L60.8527559,16.1818182 L58.326378,10.9454545 C59.388189,8.69090909 60.230315,6.50909091 60.669685,4.50909091 L57.2645669,4.50909091 L56.2027559,7.56363636 L54.738189,4.65454545 L53.5665354,4.65454545 L53.5665354,7.52727273 L53.676378,7.49090909 L53.676378,7.49090909 Z M53.6031496,3.05454545 L53.6031496,0.654545455 L64.1846457,0.654545455 L64.1846457,17.8909091 C64.1846457,20.6909091 61.4751969,20.5454545 58.2531496,20.5454545 L57.3011811,17.8181818 L60.669685,17.8545455 L60.669685,3.05454545 L53.6031496,3.05454545 L53.6031496,3.05454545 Z M53.6031496,12.4727273 L52.0653543,9.96363636 L53.6031496,7.6 L53.6031496,4.72727273 L51.4429134,4.72727273 L50.1248031,7.2 L48.1110236,4.72727273 L47.4885827,4.76363636 L47.4885827,8.03636364 L48.6602362,9.67272727 L47.4885827,11.6 L47.4885827,16.7272727 L50.4177165,12.1818182 L51.15,14.1090909 L51.4795276,14.8 L52.7244094,14.7636364 L50.8570866,17.4545455 L53.5299213,17.4545455 L53.5299213,12.4727273 L53.6031496,12.4727273 L53.6031496,12.4727273 Z M53.6031496,0.654545455 L53.6031496,3.05454545 L47.5251969,3.05454545 L47.5251969,0.654545455 L53.6031496,0.654545455 L53.6031496,0.654545455 Z M47.5251969,0.654545455 L47.5251969,3.05454545 L46.4633858,3.05454545 L46.4633858,4.8 L47.5251969,4.76363636 L47.5251969,8.03636364 L46.3535433,6.4 L46.3535433,13.4909091 L47.5251969,11.5636364 L47.5251969,16.7272727 L47.5251969,16.7636364 L46.3535433,16.8 L46.3535433,20.2909091 L43.2047244,20.2909091 L43.2047244,0.654545455 L47.5251969,0.654545455 L47.5251969,0.654545455 Z" id="Shape" fill="#FFFFFF"></path>
                    <path d="M89.8511811,31.7454545 L89.8511811,31.0545455 C90.876378,30.8 91.4988189,30.1090909 91.4988189,28.8727273 C91.4988189,27.7818182 90.9129921,27.0909091 89.8511811,26.9090909 L89.8511811,26.2181818 C92.1212598,26.4727273 92.6338583,27.7818182 92.6338583,28.8727273 L92.6338583,28.8727273 C92.6338583,29.8909091 92.2311024,30.6181818 91.6086614,31.0909091 C91.1692913,31.4181818 90.5834646,31.6363636 89.8511811,31.7454545 L89.8511811,31.7454545 Z M89.8511811,26.2181818 L89.8511811,26.9090909 C89.5948819,26.8727273 89.3385827,26.8363636 89.0456693,26.8363636 C88.6795276,26.8363636 88.3866142,26.8727273 88.2035433,26.9090909 L88.2035433,31.1272727 C88.3866142,31.1636364 88.6429134,31.1636364 88.8992126,31.1636364 C89.2287402,31.1636364 89.5582677,31.1272727 89.8511811,31.0545455 L89.8511811,31.7454545 C89.4850394,31.8181818 89.0822835,31.8181818 88.6795276,31.8181818 C88.0570866,31.8181818 87.5444882,31.7818182 87.1417323,31.7454545 L87.1417323,26.2909091 C87.6543307,26.2181818 88.2767717,26.1818182 88.9724409,26.1818182 C89.2653543,26.1454545 89.5582677,26.1818182 89.8511811,26.2181818 L89.8511811,26.2181818 L89.8511811,26.2181818 Z M78.0980315,29.4545455 L78.0980315,28.7636364 C78.7937008,28.6545455 79.1964567,28.2909091 79.1964567,27.7818182 C79.1964567,27.1636364 78.7204724,26.9090909 78.0980315,26.8363636 L78.0980315,26.1818182 C78.7937008,26.2181818 79.3429134,26.3636364 79.7090551,26.6181818 C80.0751969,26.8727273 80.2948819,27.2727273 80.2948819,27.7090909 C80.2948819,28.4363636 79.7456693,28.9090909 79.0133858,29.1272727 L79.0133858,29.1272727 C79.5625984,29.2727273 79.8555118,29.6727273 80.0019685,30.2545455 C80.2216535,30.9818182 80.4047244,31.5636364 80.5511811,31.7818182 L79.4161417,31.7818182 C79.3062992,31.6363636 79.1598425,31.1272727 78.9767717,30.4363636 C78.830315,29.8545455 78.5740157,29.5636364 78.0980315,29.4545455 L78.0980315,29.4545455 L78.0980315,29.4545455 Z M85.7503937,31.0545455 L83.0043307,31.0545455 L83.0043307,26.1818182 L81.9059055,26.1818182 L81.9059055,31.7454545 L85.7503937,31.7454545 L85.7503937,31.0545455 L85.7503937,31.0545455 Z M78.0980315,26.1818182 L78.0980315,26.8363636 L77.7685039,26.8363636 C77.4023622,26.8363636 77.146063,26.8727273 76.9996063,26.8727273 L76.9996063,28.8 L77.7318898,28.8 C77.8783465,28.8 77.988189,28.8 78.0980315,28.7636364 L78.0980315,29.4545455 C77.9515748,29.4181818 77.8417323,29.4181818 77.6586614,29.4181818 L76.9996063,29.4181818 L76.9996063,31.7818182 L75.9377953,31.7818182 L75.9377953,26.2909091 C76.3771654,26.2181818 77.0362205,26.1818182 77.6586614,26.1818182 C77.8417323,26.1454545 77.988189,26.1454545 78.0980315,26.1818182 L78.0980315,26.1818182 L78.0980315,26.1818182 Z M71.3976378,31.8545455 L71.3976378,31.1636364 C72.6425197,31.1636364 73.3015748,30.1454545 73.3015748,28.9454545 C73.3015748,27.8909091 72.715748,26.8 71.434252,26.8 L71.434252,26.8 L71.434252,26.1090909 L71.4708661,26.1090909 C73.3748031,26.1090909 74.4366142,27.3090909 74.4366142,28.9454545 C74.4366142,30.8727273 73.1185039,31.8545455 71.3976378,31.8545455 L71.3976378,31.8545455 Z M46.3901575,26.3636364 C46.0972441,26.2545455 45.5846457,26.1090909 44.8889764,26.1090909 C43.4610236,26.1090909 42.5822835,26.7636364 42.5822835,27.6363636 C42.5822835,28.4 43.3145669,28.9090909 44.376378,29.2363636 C45.2185039,29.5272727 45.5846457,29.8181818 45.5846457,30.2909091 C45.5846457,30.8 45.1086614,31.1272727 44.2665354,31.1272727 C43.6807087,31.1272727 43.0948819,30.9818182 42.7287402,30.8 L42.4724409,31.4909091 C42.8019685,31.6727273 43.534252,31.8181818 44.1933071,31.8181818 C45.8043307,31.8181818 46.6830709,31.1272727 46.6830709,30.1818182 C46.6830709,29.4181818 46.1338583,28.9454545 44.9988189,28.5454545 C44.0834646,28.2545455 43.6807087,28 43.6807087,27.5272727 C43.6807087,27.1636364 44.0468504,26.8 44.8889764,26.8 C45.4748031,26.8 45.9141732,26.9454545 46.1704724,27.0545455 L46.3901575,26.3636364 L46.3901575,26.3636364 Z M71.3976378,26.1090909 L71.3976378,26.8 C70.0795276,26.8 69.4937008,27.8909091 69.4937008,28.9818182 C69.4937008,30.1090909 70.1527559,31.1636364 71.3610236,31.1636364 L71.3610236,31.1636364 L71.3610236,31.8545455 L71.3244094,31.8545455 C69.4937008,31.8545455 68.3220472,30.6909091 68.3220472,29.0181818 C68.3586614,27.2727273 69.6035433,26.1454545 71.3976378,26.1090909 L71.3976378,26.1090909 L71.3976378,26.1090909 Z M52.1019685,31.0545455 L49.2826772,31.0545455 L49.2826772,29.2 L51.7724409,29.2 L51.7724409,28.5090909 L49.2826772,28.5090909 L49.2826772,26.9090909 L51.9188976,26.9090909 L51.9188976,26.1818182 L48.184252,26.1818182 L48.184252,31.7454545 L52.0653543,31.7454545 L52.0653543,31.0545455 L52.1019685,31.0545455 L52.1019685,31.0545455 Z M58.0700787,30.9454545 C57.7771654,31.0545455 57.2645669,31.1272727 56.7885827,31.1272727 C55.3240157,31.1272727 54.4086614,30.3636364 54.4086614,28.9818182 C54.4086614,27.5272727 55.4338583,26.8 56.8251969,26.8 C57.3744094,26.8 57.7771654,26.9090909 58.0700787,27.0181818 L58.2897638,26.3272727 C58.1066929,26.2545455 57.5940945,26.1090909 56.7519685,26.1090909 C54.7748031,26.1090909 53.2370079,27.1272727 53.2370079,29.0545455 C53.2370079,30.8363636 54.5551181,31.8545455 56.5688976,31.8545455 C57.3377953,31.8545455 57.9602362,31.7454545 58.2531496,31.6363636 L58.0700787,30.9454545 L58.0700787,30.9454545 Z M66.3814961,26.1818182 L65.6125984,28.8 C65.4295276,29.4909091 65.2464567,30.1090909 65.1366142,30.7636364 L65.1,30.7636364 C64.9901575,30.1090909 64.8437008,29.4909091 64.6606299,28.8363636 L63.9283465,26.1818182 L62.8299213,26.1818182 L62.0244094,28.8363636 C61.8047244,29.5272727 61.6216535,30.2181818 61.511811,30.8 L61.4751969,30.8 C61.3653543,30.2181818 61.1822835,29.5272727 61.0358268,28.8363636 L60.3401575,26.1818182 L59.2051181,26.1818182 L60.8893701,31.7454545 L62.0244094,31.7454545 L62.8665354,29.0545455 C63.0862205,28.4 63.2326772,27.8545455 63.3425197,27.2363636 L63.3791339,27.2363636 C63.4523622,27.8181818 63.5988189,28.4 63.7818898,29.0545455 L64.5507874,31.7454545 L65.6858268,31.7454545 L67.5165354,26.1818182 L66.3814961,26.1818182 L66.3814961,26.1818182 Z" id="Shape" fill="#FFFFFF"></path>
                </g>
            </g>
        </g>
    </g>
</svg>